<svg xmlns="http://www.w3.org/2000/svg" viewBox="0 0 512 512">
    <path fill="#d80027" d="M0 0h512v512H0z"></path>
    <path fill="#ffda44" d="M373.008 256l-47.81 22.488 25.459 46.305-51.918-9.933-6.577 52.444-36.163-38.569-36.161 38.569-6.579-52.444-51.913 9.932 25.457-46.306L138.994 256l47.81-22.487-25.458-46.306 51.912 9.934 6.583-52.445 36.158 38.57 36.165-38.57 6.575 52.445 51.92-9.934-25.46 46.308z"></path>
    <circle cx="256" cy="256" r="72.815" fill="#d80027"></circle>
    <path d="M219.592 256a52.18 52.18 0 0 0-5.195.26 41.433 41.433 0 0 0 9.737 26.487 72.99 72.99 0 0 1 14.068-23.292 51.727 51.727 0 0 0-18.61-3.455zm22.413 39.189a41.507 41.507 0 0 0 13.995 2.42c4.912 0 9.621-.857 13.995-2.42-2.384-9.357-7.307-17.711-13.995-24.274-6.688 6.564-11.611 14.918-13.995 24.274zm50.028-59.987c-7.195-12.436-20.63-20.811-36.033-20.811-15.401 0-28.838 8.375-36.033 20.811a72.353 72.353 0 0 1 36.033 9.79 72.337 72.337 0 0 1 36.033-9.79zm-18.237 24.254a72.992 72.992 0 0 1 14.069 23.292 41.434 41.434 0 0 0 9.738-26.487c-1.71-.17-3.442-.26-5.195-.26a51.703 51.703 0 0 0-18.612 3.455z"
          fill="#ffda44"></path>
</svg>