<svg viewBox="0 0 25 25" fill="none" xmlns="http://www.w3.org/2000/svg" aria-hidden="true">
    <path d="M2.438.426H22.56a2.012 2.012 0 012.013 2.012v20.124a2.012 2.012 0 01-2.013 2.013H2.438a2.012 2.012 0 01-2.012-2.012V2.438A2.012 2.012 0 012.438.426z" fill="#FDB913"></path>
    <path d="M22.562.426a2.013 2.013 0 012.012 2.012v20.124a2.012 2.012 0 01-2.012 2.012H2.438a2.011 2.011 0 01-2.012-2.012V2.438A2.012 2.012 0 012.438.426h20.124zm0-.426H2.438A2.44 2.44 0 000 2.438v20.124A2.441 2.441 0 002.438 25h20.124A2.44 2.44 0 0025 22.562V2.438A2.44 2.44 0 0022.562 0" fill="#FDB913"></path>
    <path d="M13.909 12.761l-.002-4.324 1.129-.267v.566s.292-.745.97-.918a.65.65 0 01.314-.021V8.9a1.581 1.581 0 00-.591.123c-.417.165-.627.524-.627 1.073v2.387l-1.193.278zM7.96 14.167s-.184-.275-.184-1.248v-2.153l-.58.138v-.886l.581-.138v-.967l1.2-.283v.967l.848-.202v.886l-.848.201v2.192c0 .997.265 1.189.265 1.189l-1.282.304zM9.95 11.595c0-.769.11-1.33.345-1.76.28-.51.738-.843 1.406-.996 1.317-.299 1.792.48 1.774 1.525-.008.374-.006.556-.006.556l-2.32.545v.038c0 .73.154 1.076.617.978.4-.084.51-.335.542-.644.005-.05.008-.177.008-.177l1.086-.26s.003.088.001.188c-.01.415-.13 1.444-1.64 1.801-1.43.34-1.812-.534-1.812-1.794zm1.8-1.95c-.385.087-.586.464-.595 1.089l1.167-.278c.002-.028.002-.09.002-.188-.002-.472-.148-.72-.575-.623zM20.382 9.066c-.045-1.316.296-2.361 1.765-2.694.937-.213 1.292.03 1.473.266.173.225.24.528.24.952v.078l-1.149.273v-.16c0-.503-.14-.695-.505-.603-.435.11-.61.522-.61 1.342v.383c0 .833.115 1.215.616 1.11.434-.09.494-.471.5-.806.002-.052.004-.22.004-.22l1.147-.272s.002.085.002.18c-.003 1.093-.58 1.781-1.659 2.033-1.487.348-1.778-.511-1.824-1.862zM16.409 10.91c0-1.002.586-1.318 1.47-1.684.793-.328.81-.491.814-.777.005-.24-.107-.446-.502-.345a.597.597 0 00-.479.566 2.055 2.055 0 00-.007.222l-1.114.263a2.217 2.217 0 01.077-.658c.178-.6.706-1.002 1.618-1.213 1.185-.273 1.58.247 1.581 1.055v1.915c0 .927.172 1.062.172 1.062l-1.093.259a2.38 2.38 0 01-.147-.393s-.24.603-1.064.797c-.867.205-1.326-.333-1.326-1.07zm2.276-1.368c-.184.13-.378.243-.581.34-.364.179-.53.398-.53.737 0 .293.182.485.512.404.354-.09.6-.42.6-.878v-.603zM1.685 17.198a.695.695 0 01-.581-1.072l.007-.01.014-.003 1.632-.385v1.24l-.026.005c-.37.09-.812.19-.904.21a.68.68 0 01-.142.015zM1.685 18.784a.693.693 0 01-.581-1.07l.007-.011.014-.003 1.632-.386v1.24l-.026.007c-.37.088-.812.191-.904.21a.739.739 0 01-.142.012zM1.685 20.372a.693.693 0 01-.581-1.07l.007-.012 1.646-.388v1.24l-.026.007c-.39.094-.825.192-.904.21a.716.716 0 01-.142.013zM1.493 15.679V8.743l1.264-.299v6.936l-1.264.299zM4.642 15.089a.78.78 0 00-1.56 0l.001 6.482a2.115 2.115 0 002.111 2.113l2.209-.003v-2.704l.001-3.016a1.021 1.021 0 00-.454-.85l-1.968-1.337v3.035a.168.168 0 11-.336 0l-.004-3.72zM5.696 10.252a1.707 1.707 0 00-1.126.87v-.487l-1.138.27.001 3.112a1.165 1.165 0 011.199.21v-2.01c0-.482.24-.866.582-.942.257-.056.472.036.472.495l.001 2.932 1.2-.281v-3.102c0-.753-.29-1.278-1.191-1.067z" fill="#231F20"></path>
</svg>