<svg viewBox="0 0 73 18" fill="none" xmlns="http://www.w3.org/2000/svg" aria-hidden="true">
    <path d="M20.28 3.271c.366 1.128.731 2.257 1.065 3.258.413 1.223.834 2.454 1.255 3.686.42 1.231.842 2.462 1.255 3.686.19.557.38 1.13.573 1.712.258.78.52 1.573.793 2.355h-3.368l-1.303-3.781-5.879.032L13.402 18H10L16.005.014h3.21c.333 1.001.699 2.13 1.064 3.257zm-2.685 1.827l-1.97 6.134h4.004l-2.034-6.133zM10.02.65c1.367.667 2.098 1.875 2.384 3.336.35 1.78.286 3.528-.445 5.18-.54 1.112-1.462 1.811-2.606 2.256-1.36.521-3.25.515-4.753.51l-.426-.001V17.968H.837V.014h5.53c1.525 0 2.478.127 3.654.636zM6.653 8.912c.922-.127 1.525-.668 1.843-1.557.286-.763.223-1.59.096-2.415-.064-.636-.35-1.24-.954-1.621-.89-.54-3.463-.477-3.463-.477V9.04s1.684-.032 2.478-.127zM31.578.014L28.464 6.56 25.35.014h-3.686c.89 1.97 1.843 4.068 2.7 5.942.7 1.494 2.32 5.244 2.32 5.244l-.031 6.768h3.495V11.2c1.176-2.543 2.415-5.275 3.59-7.818.477-1.048 1.05-2.256 1.526-3.368-1.207 0-2.542-.032-3.686 0z" fill="#fff"></path>
    <path d="M51.272 10.232h5.37V7.213h-5.37V3.02h6.038V0h-9.406v17.955h10.423v-3.02h-7.055v-4.703zM39.43 10.232h5.37V7.213h-5.37V3.02h6.037V0h-9.406v17.955h10.391v-3.02H39.43v-4.703zM71.568 5.307c0 2.351-1.494 4.226-3.464 4.989l4.226 7.658h-4.004l-4.003-7.277h-1.335v7.277h-3.4V0h6.705c2.923 0 5.275 1.907 5.275 5.307zm-8.58 2.447h2.573c1.176 0 2.13-1.113 2.13-2.447 0-1.526-1.05-2.352-2.32-2.352h-2.383v4.799z" fill="#0095FF"></path>
</svg>