<svg xmlns="http://www.w3.org/2000/svg" viewBox="0 0 512 512">
    <path fill="#d80027" d="M 0 0 H 512 V 170.666 H 0 z"></path>
    <path fill="#f0f0f0" d="M 0 170.666 H 512 V 341.333 H 0 z"></path>
    <path fill="#6da544" d="M 0 341.333 H 512 V 512 H 0 z"></path>
    <path d="M213.259 320.926h85.482v-36.33l-17.096 8.548L256 267.5l-25.645 25.644-17.096-8.548zm-48.908-42.741l3.979 12.245h12.873l-10.414 7.567 3.978 12.244-10.416-7.568-10.415 7.568 3.978-12.244-10.415-7.567h12.874zm12.336-42.74l3.978 12.244h12.874l-10.416 7.567 3.978 12.244-10.414-7.566-10.416 7.566 3.978-12.244-10.415-7.567h12.874zm35.262-32.055l3.978 12.243h12.875l-10.416 7.568 3.978 12.244-10.415-7.567-10.416 7.567 3.978-12.244-10.415-7.568h12.874zm135.699 74.795l-3.978 12.245h-12.875l10.416 7.567-3.978 12.244 10.415-7.568 10.416 7.568-3.978-12.244 10.415-7.567h-12.874zm-12.335-42.74l-3.978 12.244h-12.874l10.416 7.567-3.979 12.244 10.415-7.566 10.416 7.566-3.978-12.244 10.415-7.567h-12.874zm-35.262-32.055l-3.979 12.243h-12.874l10.416 7.568-3.978 12.244 10.415-7.567 10.416 7.567-3.978-12.244 10.414-7.568H304.03zM256 187.361l3.979 12.244h12.874l-10.416 7.567 3.979 12.244L256 211.849l-10.416 7.567 3.979-12.244-10.416-7.567h12.874z"
          fill="#ffda44"></path>
</svg>